<?xml version="1.0" encoding="UTF-8" standalone="no"?>
<!-- Created with Inkscape (http://www.inkscape.org/) -->

<svg
   xmlns:dc="http://purl.org/dc/elements/1.1/"
   xmlns:cc="http://creativecommons.org/ns#"
   xmlns:rdf="http://www.w3.org/1999/02/22-rdf-syntax-ns#"
   xmlns:svg="http://www.w3.org/2000/svg"
   xmlns="http://www.w3.org/2000/svg"
   xmlns:sodipodi="http://sodipodi.sourceforge.net/DTD/sodipodi-0.dtd"
   xmlns:inkscape="http://www.inkscape.org/namespaces/inkscape"
   width="683.85718"
   height="618.14288"
   id="svg2"
   version="1.1"
   inkscape:version="0.48.4 r9939"
   sodipodi:docname="2-margin.svg">
  <defs
     id="defs4">
    <marker
       inkscape:stockid="Arrow1Lstart"
       orient="auto"
       refY="0"
       refX="0"
       id="Arrow1Lstart"
       style="overflow:visible">
      <path
         id="path3763"
         d="M 0,0 5,-5 -12.5,0 5,5 0,0 z"
         style="fill-rule:evenodd;stroke:#000000;stroke-width:1pt"
         transform="matrix(0.8,0,0,0.8,10,0)"
         inkscape:connector-curvature="0" />
    </marker>
    <marker
       inkscape:stockid="Arrow1Lend"
       orient="auto"
       refY="0"
       refX="0"
       id="Arrow1Lend"
       style="overflow:visible">
      <path
         id="path3766"
         d="M 0,0 5,-5 -12.5,0 5,5 0,0 z"
         style="fill-rule:evenodd;stroke:#000000;stroke-width:1pt"
         transform="matrix(-0.8,0,0,-0.8,-10,0)"
         inkscape:connector-curvature="0" />
    </marker>
  </defs>
  <sodipodi:namedview
     id="base"
     pagecolor="#ffffff"
     bordercolor="#666666"
     borderopacity="1.0"
     inkscape:pageopacity="0.0"
     inkscape:pageshadow="2"
     inkscape:zoom="0.7"
     inkscape:cx="371.72115"
     inkscape:cy="276.1737"
     inkscape:document-units="px"
     inkscape:current-layer="layer1"
     showgrid="true"
     showguides="false"
     inkscape:snap-global="true"
     fit-margin-top="0"
     fit-margin-left="0"
     fit-margin-right="0"
     fit-margin-bottom="0"
     inkscape:window-width="1280"
     inkscape:window-height="745"
     inkscape:window-x="0"
     inkscape:window-y="27"
     inkscape:window-maximized="1">
    <inkscape:grid
       type="xygrid"
       id="grid2985"
       empspacing="5"
       visible="true"
       enabled="true"
       snapvisiblegridlinesonly="true"
       originx="1.928573px"
       originy="-396.64284px" />
  </sodipodi:namedview>
  <metadata
     id="metadata7">
    <rdf:RDF>
      <cc:Work
         rdf:about="">
        <dc:format>image/svg+xml</dc:format>
        <dc:type
           rdf:resource="http://purl.org/dc/dcmitype/StillImage" />
        <dc:title></dc:title>
      </cc:Work>
    </rdf:RDF>
  </metadata>
  <g
     inkscape:label="Layer 1"
     inkscape:groupmode="layer"
     id="layer1"
     transform="translate(1.928573,-37.576455)">
    <path
       style="fill:none;stroke:#000000;stroke-width:2.5;stroke-linecap:butt;stroke-linejoin:miter;stroke-miterlimit:4;stroke-opacity:1;stroke-dasharray:none;marker-start:url(#Arrow1Lstart);marker-mid:none;marker-end:url(#Arrow1Lend)"
       d="m 100,112.36218 0,480 540,0"
       id="path3757"
       inkscape:connector-curvature="0" />
    <path
       sodipodi:type="arc"
       style="fill:#00e518;fill-opacity:1;stroke:#000000;stroke-width:2;stroke-miterlimit:4;stroke-opacity:1;stroke-dasharray:none"
       id="path4775"
       sodipodi:cx="260"
       sodipodi:cy="307.36218"
       sodipodi:rx="10"
       sodipodi:ry="10"
       d="m 270,307.36218 a 10,10 0 1 1 -20,0 10,10 0 1 1 20,0 z"
       transform="matrix(0.75,0,0,0.75,47.857142,116.84055)" />
    <path
       transform="matrix(0.75,0,0,0.75,-13.571429,238.26912)"
       sodipodi:type="arc"
       style="fill:#00e518;fill-opacity:1;stroke:#000000;stroke-width:2;stroke-miterlimit:4;stroke-opacity:1;stroke-dasharray:none"
       id="path4775-9"
       sodipodi:cx="260"
       sodipodi:cy="307.36218"
       sodipodi:rx="10"
       sodipodi:ry="10"
       d="m 270,307.36218 c 0,5.52285 -4.47715,10 -10,10 -5.52285,0 -10,-4.47715 -10,-10 0,-5.52284 4.47715,-10 10,-10 5.52285,0 10,4.47716 10,10 z" />
    <path
       transform="matrix(0.75,0,0,0.75,106.42857,198.26912)"
       sodipodi:type="arc"
       style="fill:#00e518;fill-opacity:1;stroke:#000000;stroke-width:2;stroke-miterlimit:4;stroke-opacity:1;stroke-dasharray:none"
       id="path4775-7"
       sodipodi:cx="260"
       sodipodi:cy="307.36218"
       sodipodi:rx="10"
       sodipodi:ry="10"
       d="m 270,307.36218 c 0,5.52285 -4.47715,10 -10,10 -5.52285,0 -10,-4.47715 -10,-10 0,-5.52284 4.47715,-10 10,-10 5.52285,0 10,4.47716 10,10 z" />
    <path
       transform="matrix(0.75,0,0,0.75,-33.571429,138.26912)"
       sodipodi:type="arc"
       style="fill:#00e518;fill-opacity:1;stroke:#000000;stroke-width:2;stroke-miterlimit:4;stroke-opacity:1;stroke-dasharray:none"
       id="path4775-4"
       sodipodi:cx="260"
       sodipodi:cy="307.36218"
       sodipodi:rx="10"
       sodipodi:ry="10"
       d="m 270,307.36218 c 0,5.52285 -4.47715,10 -10,10 -5.52285,0 -10,-4.47715 -10,-10 0,-5.52284 4.47715,-10 10,-10 5.52285,0 10,4.47716 10,10 z" />
    <path
       transform="matrix(0.75,0,0,0.75,-29.530819,67.288701)"
       sodipodi:type="arc"
       style="fill:#00e518;fill-opacity:1;stroke:#000000;stroke-width:2;stroke-miterlimit:4;stroke-opacity:1;stroke-dasharray:none"
       id="path4775-5"
       sodipodi:cx="260"
       sodipodi:cy="307.36218"
       sodipodi:rx="10"
       sodipodi:ry="10"
       d="m 270,307.36218 c 0,5.52285 -4.47715,10 -10,10 -5.52285,0 -10,-4.47715 -10,-10 0,-5.52284 4.47715,-10 10,-10 5.52285,0 10,4.47716 10,10 z" />
    <path
       transform="matrix(0.75,0,0,0.75,192.14286,252.55483)"
       sodipodi:type="arc"
       style="fill:#00e518;fill-opacity:1;stroke:#000000;stroke-width:2;stroke-miterlimit:4;stroke-opacity:1;stroke-dasharray:none"
       id="path4775-59"
       sodipodi:cx="260"
       sodipodi:cy="307.36218"
       sodipodi:rx="10"
       sodipodi:ry="10"
       d="m 270,307.36218 c 0,5.52285 -4.47715,10 -10,10 -5.52285,0 -10,-4.47715 -10,-10 0,-5.52284 4.47715,-10 10,-10 5.52285,0 10,4.47716 10,10 z" />
    <path
       transform="matrix(0.75,0,0,0.75,212.14286,311.12626)"
       sodipodi:type="arc"
       style="fill:#00e518;fill-opacity:1;stroke:#000000;stroke-width:2;stroke-miterlimit:4;stroke-opacity:1;stroke-dasharray:none"
       id="path4775-2"
       sodipodi:cx="260"
       sodipodi:cy="307.36218"
       sodipodi:rx="10"
       sodipodi:ry="10"
       d="m 270,307.36218 c 0,5.52285 -4.47715,10 -10,10 -5.52285,0 -10,-4.47715 -10,-10 0,-5.52284 4.47715,-10 10,-10 5.52285,0 10,4.47716 10,10 z" />
    <rect
       style="fill:#0000d7;fill-opacity:1;stroke:#000000;stroke-width:1.50000000000000000;stroke-miterlimit:4;stroke-opacity:1;stroke-dasharray:none"
       id="rect4832"
       width="15"
       height="15"
       x="118.1089"
       y="491.16537"
       transform="matrix(0.70710678,-0.70710678,0.70710678,0.70710678,0,0)" />
    <rect
       style="fill:#0000d7;fill-opacity:1;stroke:#000000;stroke-width:1.50000000000000000;stroke-miterlimit:4;stroke-opacity:1;stroke-dasharray:none"
       id="rect4832-0"
       width="15"
       height="15"
       x="160.53531"
       y="590.16028"
       transform="matrix(0.70710678,-0.70710678,0.70710678,0.70710678,0,0)" />
    <rect
       style="fill:#0000d7;fill-opacity:1;stroke:#000000;stroke-width:1.50000000000000000;stroke-miterlimit:4;stroke-opacity:1;stroke-dasharray:none"
       id="rect4832-4"
       width="15"
       height="15"
       x="132.25104"
       y="590.16028"
       transform="matrix(0.70710678,-0.70710678,0.70710678,0.70710678,0,0)" />
    <rect
       style="fill:#0000d7;fill-opacity:1;stroke:#000000;stroke-width:1.50000000000000000;stroke-miterlimit:4;stroke-opacity:1;stroke-dasharray:none"
       id="rect4832-6"
       width="15"
       height="15"
       x="103.96677"
       y="646.72882"
       transform="matrix(0.70710678,-0.70710678,0.70710678,0.70710678,0,0)" />
    <rect
       style="fill:#0000d7;fill-opacity:1;stroke:#000000;stroke-width:1.50000000000000000;stroke-miterlimit:4;stroke-opacity:1;stroke-dasharray:none"
       id="rect4832-2"
       width="15"
       height="15"
       x="160.53531"
       y="675.01312"
       transform="matrix(0.70710678,-0.70710678,0.70710678,0.70710678,0,0)" />
    <rect
       style="fill:#0000d7;fill-opacity:1;stroke:#000000;stroke-width:1.50000000000000000;stroke-miterlimit:4;stroke-opacity:1;stroke-dasharray:none"
       id="rect4832-24"
       width="15"
       height="15"
       x="202.96172"
       y="491.16537"
       transform="matrix(0.70710678,-0.70710678,0.70710678,0.70710678,0,0)" />
    <rect
       style="fill:#0000d7;fill-opacity:1;stroke:#000000;stroke-width:1.50000000000000000;stroke-miterlimit:4;stroke-opacity:1;stroke-dasharray:none"
       id="rect4832-3"
       width="15"
       height="15"
       x="160.53531"
       y="392.17041"
       transform="matrix(0.70710678,-0.70710678,0.70710678,0.70710678,0,0)" />
    <rect
       style="fill:#0000d7;fill-opacity:1;stroke:#000000;stroke-width:1.5;stroke-miterlimit:4;stroke-opacity:1;stroke-dasharray:none"
       id="rect4832-9"
       width="15"
       height="15"
       x="60.025131"
       y="378.53336"
       transform="matrix(0.70710678,-0.70710678,0.70710678,0.70710678,0,0)" />
    <rect
       style="fill:#0000d7;fill-opacity:1;stroke:#000000;stroke-width:1.50000000000000000;stroke-miterlimit:4;stroke-opacity:1;stroke-dasharray:none"
       id="rect4832-05"
       width="15"
       height="15"
       x="89.824631"
       y="519.44965"
       transform="matrix(0.70710678,-0.70710678,0.70710678,0.70710678,0,0)" />
    <rect
       style="fill:#0000d7;fill-opacity:1;stroke:#000000;stroke-width:1.5;stroke-miterlimit:4;stroke-opacity:1;stroke-dasharray:none"
       id="rect4832-1"
       width="15"
       height="15"
       x="72.146957"
       y="563.39124"
       transform="matrix(0.70710678,-0.70710678,0.70710678,0.70710678,0,0)" />
    <rect
       style="fill:#0000d7;fill-opacity:1;stroke:#000000;stroke-width:1.50000000000000000;stroke-miterlimit:4;stroke-opacity:1;stroke-dasharray:none"
       id="rect4832-12"
       width="15"
       height="15"
       x="89.824631"
       y="321.45975"
       transform="matrix(0.70710678,-0.70710678,0.70710678,0.70710678,0,0)" />
    <path
       style="fill:none;stroke:#000000;stroke-width:2;stroke-linecap:butt;stroke-linejoin:miter;stroke-opacity:1;stroke-miterlimit:4;stroke-dasharray:none"
       d="m 21.928573,554.78572 79.999997,0 0,60 0,0"
       id="path4953"
       inkscape:connector-curvature="0"
       transform="translate(-1.928573,37.576455)" />
    <text
       xml:space="preserve"
       style="font-size:;font-style:normal;font-variant:normal;font-weight:normal;font-stretch:normal;line-height:125%;letter-spacing:0px;word-spacing:0px;baseline-shift:baseline;fill:#000000;fill-opacity:1;stroke:none;font-family:Facebook Letter Faces;-inkscape-font-specification:Facebook Letter Faces"
       x="618.57141"
       y="536.71429"
       id="text4955"
       sodipodi:linespacing="125%"
       transform="translate(-1.928573,37.576455)"><tspan
         sodipodi:role="line"
         id="tspan4957"
         x="618.57141"
         y="536.71429"
         style="font-size:20px">X<tspan
   style="font-size:20px;baseline-shift:sub"
   id="tspan4975">1</tspan></tspan></text>
    <text
       xml:space="preserve"
       x="121.42857"
       y="73.85717"
       id="text4959"
       transform="translate(-1.928573,37.576455)"
       style="font-size:20px"><tspan
         sodipodi:role="line"
         id="tspan4961"
         x="121.42857"
         y="73.85717">X<tspan
   style="font-size:20px;baseline-shift:sub"
   id="tspan4971">2</tspan></tspan></text>
    <g
       id="g3946"
       transform="matrix(0.79697461,0.04411335,-0.04345164,0.78753072,793.81304,-244.59785)">
      <path
         inkscape:connector-curvature="0"
         id="path4753"
         d="m -797.88106,454.30316 616.52269,485.61627"
         style="fill:none;stroke:#000000;stroke-width:1.98151743;stroke-linecap:butt;stroke-linejoin:miter;stroke-miterlimit:4;stroke-opacity:1;stroke-dasharray:7.92606974, 1.98151743;stroke-dashoffset:0" />
      <path
         inkscape:connector-curvature="0"
         id="path4753-2"
         d="m -799.57727,654.77895 616.52271,485.61625"
         style="fill:none;stroke:#000000;stroke-width:1.98151743;stroke-linecap:butt;stroke-linejoin:miter;stroke-miterlimit:4;stroke-opacity:1;stroke-dasharray:7.92606974, 1.98151743;stroke-dashoffset:0" />
      <path
         inkscape:connector-curvature="0"
         id="path4753-2-0"
         d="m -799.17116,555.24662 616.52271,485.61618"
         style="fill:none;stroke:#000000;stroke-width:1.98199999;stroke-linecap:butt;stroke-linejoin:miter;stroke-miterlimit:4;stroke-opacity:1;stroke-dasharray:none;stroke-dashoffset:0" />
    </g>
    <path
       sodipodi:type="arc"
       style="fill:none;stroke:#000000;stroke-width:1.98199999;stroke-miterlimit:4;stroke-opacity:1;stroke-dasharray:none;stroke-dashoffset:0"
       id="path3951"
       sodipodi:cx="241.92857"
       sodipodi:cy="314.78574"
       sodipodi:rx="20"
       sodipodi:ry="20"
       d="m 261.92857,314.78574 a 20,20 0 1 1 -40,0 20,20 0 1 1 40,0 z"
       transform="translate(0.571427,32.576455)" />
    <path
       sodipodi:type="arc"
       style="fill:none;stroke:#000000;stroke-width:1.98199999;stroke-miterlimit:4;stroke-opacity:1;stroke-dasharray:none;stroke-dashoffset:0"
       id="path3951-0"
       sodipodi:cx="241.92857"
       sodipodi:cy="314.78574"
       sodipodi:rx="20"
       sodipodi:ry="20"
       d="m 261.92857,314.78574 a 20,20 0 1 1 -40,0 20,20 0 1 1 40,0 z"
       transform="translate(218.42856,31.862166)" />
    <path
       sodipodi:type="arc"
       style="fill:none;stroke:#000000;stroke-width:1.98199999;stroke-miterlimit:4;stroke-opacity:1;stroke-dasharray:none;stroke-dashoffset:0"
       id="path3951-9"
       sodipodi:cx="241.92857"
       sodipodi:cy="314.78574"
       sodipodi:rx="20"
       sodipodi:ry="20"
       d="m 261.92857,314.78574 a 20,20 0 1 1 -40,0 20,20 0 1 1 40,0 z"
       transform="translate(79.142852,-90.280691)" />
    <path
       style="fill:none;stroke:#000000;stroke-width:0.877;stroke-linecap:butt;stroke-linejoin:miter;stroke-miterlimit:4;stroke-opacity:1;stroke-dasharray:0.877,3.508;stroke-dashoffset:0"
       d="M 101.24647,590.97959 329.74883,328.66357"
       id="path4753-2-3"
       inkscape:connector-curvature="0" />
    <path
       style="fill:none;stroke:#000000;stroke-width:1.04699944999999994px;stroke-linecap:butt;stroke-linejoin:miter;stroke-opacity:1;marker-start:url(#Arrow1Lstart)"
       d="m 142.22337,544.19862 -41.73872,47.27443"
       id="path4073"
       inkscape:connector-curvature="0" />
    <text
       xml:space="preserve"
       style="font-size:18px;font-style:normal;font-variant:normal;font-weight:normal;font-stretch:normal;line-height:125%;letter-spacing:0px;word-spacing:0px;fill:#000000;fill-opacity:1;stroke:none;font-family:Facebook Letter Faces;-inkscape-font-specification:Facebook Letter Faces"
       x="-344.12558"
       y="465.51309"
       id="text4811"
       sodipodi:linespacing="125%"
       transform="matrix(0.67001918,-0.74234378,0.74234378,0.67001918,0,0)"><tspan
         sodipodi:role="line"
         id="tspan4813"
         x="-344.12558"
         y="465.51309"
         style="font-style:normal;font-variant:normal;font-weight:bold;font-stretch:normal;font-family:Arial;-inkscape-font-specification:Arial Bold">w</tspan></text>
    <text
       xml:space="preserve"
       style="font-size:18px;font-style:normal;font-variant:normal;font-weight:normal;font-stretch:normal;line-height:125%;letter-spacing:0px;word-spacing:0px;fill:#000000;fill-opacity:1;stroke:none;font-family:Facebook Letter Faces;-inkscape-font-specification:Facebook Letter Faces"
       x="659.54156"
       y="6.0374212"
       id="text4815"
       sodipodi:linespacing="125%"
       transform="matrix(0.73399519,0.67915467,-0.67915467,0.73399519,0,0)"><tspan
         sodipodi:role="line"
         id="tspan4817"
         x="659.54156"
         y="6.0374212"
         style="font-style:normal;font-variant:normal;font-weight:normal;font-stretch:normal;font-family:Droid Sans;-inkscape-font-specification:Droid Sans">{x|&lt;w, x&gt;+b=0}</tspan></text>
    <text
       xml:space="preserve"
       style="font-size:18px;font-style:normal;font-variant:normal;font-weight:normal;font-stretch:normal;line-height:125%;letter-spacing:0px;word-spacing:0px;fill:#000000;fill-opacity:1;stroke:none;font-family:Facebook Letter Faces;-inkscape-font-specification:Facebook Letter Faces"
       x="676.4151"
       y="-64.071663"
       id="text4815-8"
       sodipodi:linespacing="125%"
       transform="matrix(0.73399519,0.67915467,-0.67915467,0.73399519,0,0)"><tspan
         sodipodi:role="line"
         id="tspan4817-4"
         x="676.4151"
         y="-64.071663"
         style="font-style:normal;font-variant:normal;font-weight:normal;font-stretch:normal;font-family:Droid Sans;-inkscape-font-specification:Droid Sans">{x|&lt;w, x&gt;+b=1}</tspan></text>
    <text
       xml:space="preserve"
       style="font-size:18px;font-style:normal;font-variant:normal;font-weight:normal;font-stretch:normal;line-height:125%;letter-spacing:0px;word-spacing:0px;fill:#000000;fill-opacity:1;stroke:none;font-family:Facebook Letter Faces;-inkscape-font-specification:Facebook Letter Faces"
       x="657.34796"
       y="62.563416"
       id="text4815-81"
       sodipodi:linespacing="125%"
       transform="matrix(0.73399519,0.67915467,-0.67915467,0.73399519,0,0)"><tspan
         sodipodi:role="line"
         id="tspan4817-3"
         x="657.34796"
         y="62.563416"
         style="font-style:normal;font-variant:normal;font-weight:normal;font-stretch:normal;font-family:Droid Sans;-inkscape-font-specification:Droid Sans">{x|&lt;w, x&gt;+b=-1}</tspan></text>
    <path
       style="fill:none;stroke:#000000;stroke-width:1px;stroke-linecap:butt;stroke-linejoin:miter;stroke-opacity:1"
       d="m 306.92857,319.78572 c 10,20 40,20 50,-5"
       id="path4857"
       inkscape:connector-curvature="0"
       transform="translate(-1.928573,37.576455)"
       sodipodi:nodetypes="cc" />
    <path
       sodipodi:type="arc"
       style="fill:#000000;fill-opacity:1;stroke:#000000;stroke-width:0.87699997;stroke-miterlimit:4;stroke-opacity:1;stroke-dasharray:0.877, 3.508;stroke-dashoffset:0"
       id="path4861"
       sodipodi:cx="329.42856"
       sodipodi:cy="317.28574"
       sodipodi:rx="2.5"
       sodipodi:ry="2.5"
       d="m 331.92856,317.28574 a 2.5,2.5 0 1 1 -5,0 2.5,2.5 0 1 1 5,0 z"
       transform="translate(0.59680836,33.535845)" />
  </g>
</svg>
