<?xml version="1.0" encoding="UTF-8" standalone="no"?>
<!DOCTYPE svg PUBLIC "-//W3C//DTD SVG 1.1//EN"
 "http://www.w3.org/Graphics/SVG/1.1/DTD/svg11.dtd">
<!-- Generated by graphviz version 2.26.3 (20100126.1600)
 -->
<!-- Title: g Pages: 1 -->
<svg width="278pt" height="260pt"
 viewBox="0.00 0.00 278.00 260.00" xmlns="http://www.w3.org/2000/svg" xmlns:xlink="http://www.w3.org/1999/xlink">
<g id="graph1" class="graph" transform="scale(1 1) rotate(0) translate(4 256)">
<title>g</title>
<polygon fill="white" stroke="white" points="-4,5 -4,-256 275,-256 275,5 -4,5"/>
<!-- n -->
<g id="node1" class="node"><title>n</title>
<polygon fill="none" stroke="black" points="162,-252 108,-252 108,-216 162,-216 162,-252"/>
<text text-anchor="middle" x="135" y="-230.4" font-family="Times Roman,serif" font-size="14.00">*</text>
</g>
<!-- n0 -->
<g id="node2" class="node"><title>n0</title>
<polygon fill="none" stroke="black" points="126,-180 72,-180 72,-144 126,-144 126,-180"/>
<text text-anchor="middle" x="99" y="-158.4" font-family="Times Roman,serif" font-size="14.00">sin()</text>
</g>
<!-- n&#45;&gt;n0 -->
<g id="edge2" class="edge"><title>n&#45;&gt;n0</title>
<path fill="none" stroke="black" d="M125.916,-215.831C121.939,-207.877 117.185,-198.369 112.786,-189.572"/>
<polygon fill="black" stroke="black" points="115.809,-187.792 108.207,-180.413 109.548,-190.923 115.809,-187.792"/>
</g>
<!-- n1 -->
<g id="node6" class="node"><title>n1</title>
<polygon fill="none" stroke="black" points="198,-180 144,-180 144,-144 198,-144 198,-180"/>
<text text-anchor="middle" x="171" y="-158.4" font-family="Times Roman,serif" font-size="14.00">cos()</text>
</g>
<!-- n&#45;&gt;n1 -->
<g id="edge10" class="edge"><title>n&#45;&gt;n1</title>
<path fill="none" stroke="black" d="M144.084,-215.831C148.061,-207.877 152.815,-198.369 157.214,-189.572"/>
<polygon fill="black" stroke="black" points="160.452,-190.923 161.793,-180.413 154.191,-187.792 160.452,-190.923"/>
</g>
<!-- n00 -->
<g id="node3" class="node"><title>n00</title>
<polygon fill="none" stroke="black" points="126,-108 72,-108 72,-72 126,-72 126,-108"/>
<text text-anchor="middle" x="99" y="-86.4" font-family="Times Roman,serif" font-size="14.00">+</text>
</g>
<!-- n0&#45;&gt;n00 -->
<g id="edge4" class="edge"><title>n0&#45;&gt;n00</title>
<path fill="none" stroke="black" d="M99,-143.831C99,-136.131 99,-126.974 99,-118.417"/>
<polygon fill="black" stroke="black" points="102.5,-118.413 99,-108.413 95.5001,-118.413 102.5,-118.413"/>
</g>
<!-- n000 -->
<g id="node4" class="node"><title>n000</title>
<polygon fill="none" stroke="black" points="54,-36 1.77636e-14,-36 1.06581e-14,-1.06581e-14 54,-0 54,-36"/>
<text text-anchor="middle" x="27" y="-14.4" font-family="Times Roman,serif" font-size="14.00">x</text>
</g>
<!-- n00&#45;&gt;n000 -->
<g id="edge6" class="edge"><title>n00&#45;&gt;n000</title>
<path fill="none" stroke="black" d="M80.8314,-71.8314C72.2848,-63.2848 61.9443,-52.9443 52.6198,-43.6198"/>
<polygon fill="black" stroke="black" points="54.9592,-41.0095 45.4133,-36.4133 50.0095,-45.9592 54.9592,-41.0095"/>
</g>
<!-- n001 -->
<g id="node5" class="node"><title>n001</title>
<polygon fill="none" stroke="black" points="126,-36 72,-36 72,-1.06581e-14 126,-0 126,-36"/>
<text text-anchor="middle" x="99" y="-14.4" font-family="Times Roman,serif" font-size="14.00">y</text>
</g>
<!-- n00&#45;&gt;n001 -->
<g id="edge8" class="edge"><title>n00&#45;&gt;n001</title>
<path fill="none" stroke="black" d="M99,-71.8314C99,-64.131 99,-54.9743 99,-46.4166"/>
<polygon fill="black" stroke="black" points="102.5,-46.4132 99,-36.4133 95.5001,-46.4133 102.5,-46.4132"/>
</g>
<!-- n10 -->
<g id="node7" class="node"><title>n10</title>
<polygon fill="none" stroke="black" points="198,-108 144,-108 144,-72 198,-72 198,-108"/>
<text text-anchor="middle" x="171" y="-86.4" font-family="Times Roman,serif" font-size="14.00">&#45;</text>
</g>
<!-- n1&#45;&gt;n10 -->
<g id="edge12" class="edge"><title>n1&#45;&gt;n10</title>
<path fill="none" stroke="black" d="M171,-143.831C171,-136.131 171,-126.974 171,-118.417"/>
<polygon fill="black" stroke="black" points="174.5,-118.413 171,-108.413 167.5,-118.413 174.5,-118.413"/>
</g>
<!-- n101 -->
<g id="node8" class="node"><title>n101</title>
<polygon fill="none" stroke="black" points="198,-36 144,-36 144,-1.06581e-14 198,-0 198,-36"/>
<text text-anchor="middle" x="171" y="-14.4" font-family="Times Roman,serif" font-size="14.00">x</text>
</g>
<!-- n10&#45;&gt;n101 -->
<g id="edge16" class="edge"><title>n10&#45;&gt;n101</title>
<path fill="none" stroke="black" d="M171,-71.8314C171,-64.131 171,-54.9743 171,-46.4166"/>
<polygon fill="black" stroke="black" points="174.5,-46.4132 171,-36.4133 167.5,-46.4133 174.5,-46.4132"/>
</g>
<!-- n100 -->
<g id="node9" class="node"><title>n100</title>
<polygon fill="none" stroke="black" points="270,-36 216,-36 216,-1.06581e-14 270,-0 270,-36"/>
<text text-anchor="middle" x="243" y="-14.4" font-family="Times Roman,serif" font-size="14.00">y</text>
</g>
<!-- n10&#45;&gt;n100 -->
<g id="edge14" class="edge"><title>n10&#45;&gt;n100</title>
<path fill="none" stroke="black" d="M189.169,-71.8314C197.715,-63.2848 208.056,-52.9443 217.38,-43.6198"/>
<polygon fill="black" stroke="black" points="219.991,-45.9592 224.587,-36.4133 215.041,-41.0095 219.991,-45.9592"/>
</g>
</g>
</svg>
