<?xml version="1.0" encoding="UTF-8" standalone="no"?>
<!-- Created with Inkscape (http://www.inkscape.org/) -->

<svg
   xmlns:dc="http://purl.org/dc/elements/1.1/"
   xmlns:cc="http://creativecommons.org/ns#"
   xmlns:rdf="http://www.w3.org/1999/02/22-rdf-syntax-ns#"
   xmlns:svg="http://www.w3.org/2000/svg"
   xmlns="http://www.w3.org/2000/svg"
   xmlns:sodipodi="http://sodipodi.sourceforge.net/DTD/sodipodi-0.dtd"
   xmlns:inkscape="http://www.inkscape.org/namespaces/inkscape"
   width="310.88922"
   height="206.00438"
   id="svg3784"
   version="1.1"
   inkscape:version="0.48.2 r9819"
   sodipodi:docname="Nowy dokument 5">
  <title
     id="title4007">fig:2-howley</title>
  <defs
     id="defs3786" />
  <sodipodi:namedview
     id="base"
     pagecolor="#ffffff"
     bordercolor="#666666"
     borderopacity="1.0"
     inkscape:pageopacity="0.0"
     inkscape:pageshadow="2"
     inkscape:zoom="1.4"
     inkscape:cx="212.96533"
     inkscape:cy="188.05924"
     inkscape:document-units="px"
     inkscape:current-layer="layer1"
     showgrid="false"
     fit-margin-top="0"
     fit-margin-left="0"
     fit-margin-right="0"
     fit-margin-bottom="0"
     inkscape:window-width="1920"
     inkscape:window-height="1061"
     inkscape:window-x="1276"
     inkscape:window-y="-4"
     inkscape:window-maximized="1" />
  <metadata
     id="metadata3789">
    <rdf:RDF>
      <cc:Work
         rdf:about="">
        <dc:format>image/svg+xml</dc:format>
        <dc:type
           rdf:resource="http://purl.org/dc/dcmitype/StillImage" />
        <dc:title>fig:2-howley</dc:title>
      </cc:Work>
    </rdf:RDF>
  </metadata>
  <g
     inkscape:label="Layer 1"
     inkscape:groupmode="layer"
     id="layer1"
     transform="translate(-206.23117,-310.62381)">
    <g
       transform="matrix(1.5977296,0,0,1.912403,-159.06779,1421.4616)"
       id="g3009">
      <path
         id="path3011"
         style="fill:none;stroke:#000000;stroke-width:0.28200001;stroke-linecap:round;stroke-linejoin:round;stroke-miterlimit:10;stroke-opacity:1;stroke-dasharray:none"
         d="m 240.809,-573.375 12.502,0 0,-7.3558 -12.502,0 0,7.3558 z"
         inkscape:connector-curvature="0" />
    </g>
    <text
       style="font-size:19.17316818px"
       y="292.86069"
       x="249.24226"
       id="text3013"
       transform="scale(0.91405264,1.0940289)">
      <tspan
         id="tspan3015"
         sodipodi:role="line"
         y="292.86069"
         x="249.24226 252.86571 255.00171 262.26382 264.39987"
         style="font-size:7.27749586px;font-variant:normal;font-weight:normal;writing-mode:lr-tb;fill:#000000;fill-opacity:1;fill-rule:nonzero;stroke:none;font-family:Helvetica LT CondensedLight;-inkscape-font-specification:Helvetica">x[….]</tspan>
    </text>
    <g
       transform="matrix(1.5977296,0,0,1.912403,-159.06779,1421.4616)"
       id="g3017">
      <path
         id="path3019"
         style="fill:none;stroke:#000000;stroke-width:0.28200001;stroke-linecap:round;stroke-linejoin:round;stroke-miterlimit:10;stroke-opacity:1;stroke-dasharray:none"
         d="m 240.809,-553.705 12.502,0 0,-7.3793 -12.502,0 0,7.3793 z"
         inkscape:connector-curvature="0" />
    </g>
    <text
       style="font-size:19.17316818px"
       y="327.1217"
       x="249.24226"
       id="text3021"
       transform="scale(0.91405264,1.0940289)">
      <tspan
         id="tspan3023"
         sodipodi:role="line"
         y="327.1217"
         x="249.24226 252.86571 255.00171 262.26382 264.39987"
         style="font-size:7.27749586px;font-variant:normal;font-weight:normal;writing-mode:lr-tb;fill:#000000;fill-opacity:1;fill-rule:nonzero;stroke:none;font-family:Helvetica LT CondensedLight;-inkscape-font-specification:Helvetica">x[….]</tspan>
    </text>
    <g
       transform="matrix(1.5977296,0,0,1.912403,-159.06779,1421.4616)"
       id="g3025">
      <path
         id="path3027"
         style="fill:none;stroke:#000000;stroke-width:0.28200001;stroke-linecap:round;stroke-linejoin:round;stroke-miterlimit:10;stroke-opacity:1;stroke-dasharray:none"
         d="m 260.127,-544.023 12.502,0 0,-7.3793 -12.502,0 0,7.3793 z"
         inkscape:connector-curvature="0" />
    </g>
    <text
       style="font-size:19.17316818px"
       y="344.08789"
       x="283.17328"
       id="text3029"
       transform="scale(0.91405264,1.0940289)">
      <tspan
         id="tspan3031"
         sodipodi:role="line"
         y="344.08789"
         x="283.17328 286.81787 288.62561 295.90894 298.04483"
         style="font-size:7.27749586px;font-variant:normal;font-weight:normal;writing-mode:lr-tb;fill:#000000;fill-opacity:1;fill-rule:nonzero;stroke:none;font-family:Helvetica LT CondensedLight;-inkscape-font-specification:Helvetica">z[….]</tspan>
    </text>
    <g
       transform="matrix(1.5977296,0,0,1.912403,-159.06779,1421.4616)"
       id="g3033">
      <path
         id="path3035"
         style="fill:none;stroke:#000000;stroke-width:0.28200001;stroke-linecap:round;stroke-linejoin:round;stroke-miterlimit:10;stroke-opacity:1;stroke-dasharray:none"
         d="m 276.131,-558.476 c 0,-2.044 3.314,-3.689 7.403,-3.689 4.065,0 7.379,1.645 7.379,3.689 0,2.045 -3.314,3.713 -7.379,3.713 -4.089,0 -7.403,-1.668 -7.403,-3.713"
         inkscape:connector-curvature="0" />
    </g>
    <text
       style="font-size:19.17303848px"
       y="328.31079"
       x="319.89978"
       id="text3037"
       transform="scale(0.91404637,1.0940364)">
      <tspan
         id="tspan3039"
         y="328.31079"
         x="319.89978"
         style="font-size:19.40678978px;font-variant:normal;font-weight:normal;writing-mode:lr-tb;fill:#000000;fill-opacity:1;fill-rule:nonzero;stroke:none;font-family:Helvetica LT CondensedLight;-inkscape-font-specification:Helvetica">-</tspan>
    </text>
    <g
       transform="matrix(1.5977296,0,0,1.912403,-159.06779,1421.4616)"
       id="g3041">
      <path
         id="path3043"
         style="fill:none;stroke:#000000;stroke-width:0.28200001;stroke-linecap:round;stroke-linejoin:round;stroke-miterlimit:10;stroke-opacity:1;stroke-dasharray:none"
         d="m 257.213,-568.041 c 0,-2.044 3.313,-3.689 7.403,-3.689 4.065,0 7.379,1.645 7.379,3.689 0,2.045 -3.314,3.69 -7.379,3.69 -4.09,0 -7.403,-1.645 -7.403,-3.69"
         inkscape:connector-curvature="0" />
    </g>
    <text
       style="font-size:19.17303848px"
       y="312.86462"
       x="283.50381"
       id="text3045"
       transform="scale(0.91404637,1.0940364)">
      <tspan
         id="tspan3047"
         y="312.86462"
         x="283.50381"
         style="font-size:19.40678978px;font-variant:normal;font-weight:normal;writing-mode:lr-tb;fill:#000000;fill-opacity:1;fill-rule:nonzero;stroke:none;font-family:Helvetica LT CondensedLight;-inkscape-font-specification:Helvetica">+</tspan>
    </text>
    <g
       transform="matrix(1.5977296,0,0,1.912403,-159.06779,1421.4616)"
       id="g3049">
      <path
         id="path3051"
         style="fill:none;stroke:#000000;stroke-width:0.28200001;stroke-linecap:round;stroke-linejoin:round;stroke-miterlimit:10;stroke-opacity:1;stroke-dasharray:none"
         d="m 259.892,-570.884 -6.58,-6.58 m 6.956,12.737 -6.956,6.933 m 25.24,-3.69 -6.557,-6.557 m 7.638,12.714 -6.91,6.933 m 28.977,9.142 c 0,-2.045 3.314,-3.69 7.403,-3.69 4.065,0 7.379,1.645 7.379,3.69 0,2.045 -3.314,3.69 -7.379,3.69 -4.089,0 -7.403,-1.645 -7.403,-3.69"
         inkscape:connector-curvature="0" />
    </g>
    <text
       style="font-size:19.17308426px"
       y="361.09369"
       x="357.77362"
       id="text3053"
       transform="scale(0.91404862,1.0940337)">
      <tspan
         id="tspan3055"
         sodipodi:role="line"
         y="361.09369"
         x="357.77362 364.7843 368.08347"
         style="font-size:12.12921429px;font-variant:normal;font-weight:normal;writing-mode:lr-tb;fill:#000000;fill-opacity:1;fill-rule:nonzero;stroke:none;font-family:Helvetica LT CondensedLight;-inkscape-font-specification:Helvetica">&lt;,&gt;</tspan>
    </text>
    <g
       transform="matrix(1.5977296,0,0,1.912403,-159.06779,1421.4616)"
       id="g3057">
      <path
         id="path3059"
         style="fill:none;stroke:#000000;stroke-width:0.28200001;stroke-linecap:round;stroke-linejoin:round;stroke-miterlimit:10;stroke-opacity:1;stroke-dasharray:none"
         d="m 306.659,-542.73 -15.746,-15.746 m 40.422,4.771 13.372,0 0,-7.3793 -13.372,0 0,7.3793 z"
         inkscape:connector-curvature="0" />
    </g>
    <text
       style="font-size:19.17316818px"
       y="327.1217"
       x="406.90222"
       id="text3061"
       transform="scale(0.91405264,1.0940289)">
      <tspan
         id="tspan3063"
         sodipodi:role="line"
         y="327.1217"
         x="406.90222 409.03818 412.65286 415.08505 418.73248 420.54022 424.19641"
         style="font-size:7.27749586px;font-variant:normal;font-weight:normal;writing-mode:lr-tb;fill:#000000;fill-opacity:1;fill-rule:nonzero;stroke:none;font-family:Helvetica LT CondensedLight;-inkscape-font-specification:Helvetica">fv(x,z)</tspan>
    </text>
    <g
       transform="matrix(1.5977296,0,0,1.912403,-159.06779,1421.4616)"
       id="g3065">
      <path
         id="path3067"
         style="fill:none;stroke:#000000;stroke-width:0.28200001;stroke-linecap:round;stroke-linejoin:round;stroke-miterlimit:10;stroke-opacity:1;stroke-dasharray:none"
         d="m 352.885,-549.733 c 0,-2.045 3.313,-3.69 7.403,-3.69 4.065,0 7.379,1.645 7.379,3.69 0,2.044 -3.314,3.689 -7.379,3.689 -4.09,0 -7.403,-1.645 -7.403,-3.689"
         inkscape:connector-curvature="0" />
    </g>
    <text
       style="font-size:19.17306328px"
       y="342.27844"
       x="452.37878"
       id="text3069"
       transform="scale(0.91404762,1.0940349)">
      <tspan
         id="tspan3071"
         y="342.27844"
         x="452.37878"
         style="font-size:14.55507088px;font-variant:normal;font-weight:normal;writing-mode:lr-tb;fill:#000000;fill-opacity:1;fill-rule:nonzero;stroke:none;font-family:Helvetica LT CondensedLight;-inkscape-font-specification:Helvetica">x</tspan>
    </text>
    <g
       transform="matrix(1.5977296,0,0,1.912403,-159.06779,1421.4616)"
       id="g3073">
      <path
         id="path3075"
         style="fill:none;stroke:#000000;stroke-width:0.28200001;stroke-linecap:round;stroke-linejoin:round;stroke-miterlimit:10;stroke-opacity:1;stroke-dasharray:none"
         d="m 331.335,-540.756 13.372,0 0,-7.3558 -13.372,0 0,7.3558 z"
         inkscape:connector-curvature="0" />
    </g>
    <text
       style="font-size:19.17316818px"
       y="349.88025"
       x="407.80603"
       id="text3077"
       transform="scale(0.91405264,1.0940289)">
      <tspan
         id="tspan3079"
         sodipodi:role="line"
         y="349.88025"
         x="407.80603 411.74969 415.69336 417.82928 421.77295"
         style="font-size:7.27749586px;font-variant:normal;font-weight:normal;writing-mode:lr-tb;fill:#000000;fill-opacity:1;fill-rule:nonzero;stroke:none;font-family:Helvetica LT CondensedLight;-inkscape-font-specification:Helvetica">58.35</tspan>
    </text>
    <g
       transform="matrix(1.5977296,0,0,1.912403,-159.06779,1421.4616)"
       id="g3081">
      <path
         id="path3083"
         style="fill:none;stroke:#000000;stroke-width:0.28200001;stroke-linecap:round;stroke-linejoin:round;stroke-miterlimit:10;stroke-opacity:1;stroke-dasharray:none"
         d="m 331.335,-527.478 13.372,0 0,-7.3793 -13.372,0 0,7.3793 z"
         inkscape:connector-curvature="0" />
    </g>
    <text
       style="font-size:19.17316818px"
       y="372.92627"
       x="407.80603"
       id="text3085"
       transform="scale(0.91405264,1.0940289)">
      <tspan
         id="tspan3087"
         sodipodi:role="line"
         y="372.92627"
         x="407.80603 411.74969 415.69336 417.82928 421.77295"
         style="font-size:7.27749586px;font-variant:normal;font-weight:normal;writing-mode:lr-tb;fill:#000000;fill-opacity:1;fill-rule:nonzero;stroke:none;font-family:Helvetica LT CondensedLight;-inkscape-font-specification:Helvetica">22.15</tspan>
    </text>
    <g
       transform="matrix(1.5977296,0,0,1.912403,-159.06779,1421.4616)"
       id="g3089">
      <path
         id="path3091"
         style="fill:none;stroke:#000000;stroke-width:0.28200001;stroke-linecap:round;stroke-linejoin:round;stroke-miterlimit:10;stroke-opacity:1;stroke-dasharray:none"
         d="m 331.335,-514.365 13.372,0 0,-7.3558 -13.372,0 0,7.3558 z"
         inkscape:connector-curvature="0" />
    </g>
    <text
       style="font-size:19.17316818px"
       y="395.97238"
       x="407.80603"
       id="text3093"
       transform="scale(0.91405264,1.0940289)">
      <tspan
         id="tspan3095"
         sodipodi:role="line"
         y="395.97238"
         x="407.80603 411.74969 415.69336 417.82928 421.77295"
         style="font-size:7.27749586px;font-variant:normal;font-weight:normal;writing-mode:lr-tb;fill:#000000;fill-opacity:1;fill-rule:nonzero;stroke:none;font-family:Helvetica LT CondensedLight;-inkscape-font-specification:Helvetica">27.01</tspan>
    </text>
    <g
       transform="matrix(1.5977296,0,0,1.912403,-159.06779,1421.4616)"
       id="g3097">
      <path
         id="path3099"
         style="fill:none;stroke:#000000;stroke-width:0.28200001;stroke-linecap:round;stroke-linejoin:round;stroke-miterlimit:10;stroke-opacity:1;stroke-dasharray:none"
         d="m 356.739,-552.976 -12.032,-4.16 m 12.173,10.669 -12.173,2.444 m 8.107,20.517 c 0,-2.045 3.29,-3.69 7.38,-3.69 4.065,0 7.379,1.645 7.379,3.69 0,2.044 -3.314,3.689 -7.379,3.689 -4.09,0 -7.38,-1.645 -7.38,-3.689"
         inkscape:connector-curvature="0" />
    </g>
    <text
       style="font-size:19.17306328px"
       y="388.08289"
       x="451.80374"
       id="text3101"
       transform="scale(0.91404762,1.0940349)">
      <tspan
         id="tspan3103"
         y="388.08289"
         x="451.80374"
         style="font-size:14.55507088px;font-variant:normal;font-weight:normal;writing-mode:lr-tb;fill:#000000;fill-opacity:1;fill-rule:nonzero;stroke:none;font-family:Helvetica LT CondensedLight;-inkscape-font-specification:Helvetica">x</tspan>
    </text>
    <g
       transform="matrix(1.5977296,0,0,1.912403,-159.06779,1421.4616)"
       id="g3105">
      <path
         id="path3107"
         style="fill:none;stroke:#000000;stroke-width:0.28200001;stroke-linecap:round;stroke-linejoin:round;stroke-miterlimit:10;stroke-opacity:1;stroke-dasharray:none"
         d="m 356.645,-526.749 -12.032,-4.16 m 12.173,10.669 -12.173,2.444 m 26.062,-19.693 c 0,-2.045 3.314,-3.69 7.403,-3.69 4.065,0 7.379,1.645 7.379,3.69 0,2.044 -3.314,3.689 -7.379,3.689 -4.089,0 -7.403,-1.645 -7.403,-3.689"
         inkscape:connector-curvature="0" />
    </g>
    <text
       style="font-size:19.17306328px"
       y="364.70822"
       x="485.15976"
       id="text3109"
       transform="scale(0.91404762,1.0940349)">
      <tspan
         id="tspan3111"
         y="364.70822"
         x="485.15976"
         style="font-size:14.55507088px;font-variant:normal;font-weight:normal;writing-mode:lr-tb;fill:#000000;fill-opacity:1;fill-rule:nonzero;stroke:none;font-family:Helvetica LT CondensedLight;-inkscape-font-specification:Helvetica">/</tspan>
    </text>
    <g
       transform="matrix(1.5977296,0,0,1.912403,-159.06779,1421.4616)"
       id="g3113">
      <path
         id="path3115"
         style="fill:none;stroke:#000000;stroke-width:0.28200001;stroke-linecap:round;stroke-linejoin:round;stroke-miterlimit:10;stroke-opacity:1;stroke-dasharray:none"
         d="m 372.837,-540.098 -5.17,-9.635 m 5.711,15.087 -5.805,11.14 m 22.772,-13.983 c 0,-2.045 3.314,-3.69 7.403,-3.69 4.066,0 7.379,1.645 7.379,3.69 0,2.044 -3.313,3.689 -7.379,3.689 -4.089,0 -7.403,-1.645 -7.403,-3.689"
         inkscape:connector-curvature="0" />
    </g>
    <text
       style="font-size:19.17316818px"
       y="361.38269"
       x="515.47321"
       id="text3117"
       transform="scale(0.91405264,1.0940289)">
      <tspan
         id="tspan3119"
         sodipodi:role="line"
         y="361.38269"
         x="515.47321 519.41693 523.03162"
         style="font-size:7.27749586px;font-variant:normal;font-weight:normal;writing-mode:lr-tb;fill:#000000;fill-opacity:1;fill-rule:nonzero;stroke:none;font-family:Helvetica LT CondensedLight;-inkscape-font-specification:Helvetica">exp</tspan>
    </text>
    <g
       transform="matrix(1.5977296,0,0,1.912403,-159.06779,1421.4616)"
       id="g3121">
      <path
         id="path3123"
         style="fill:none;stroke:#000000;stroke-width:0.28200001;stroke-linecap:round;stroke-linejoin:round;stroke-miterlimit:10;stroke-opacity:1;stroke-dasharray:none"
         d="m 390.345,-537.489 -4.888,0 m 19.717,0.188 12.597,0"
         inkscape:connector-curvature="0" />
    </g>
    <path
       id="path3125"
       style="fill:#000000;fill-opacity:1;fill-rule:evenodd;stroke:none"
       d="m 507.92882,391.63255 3.82987,2.29163 -3.82987,2.24793 0,-4.53956"
       inkscape:connector-curvature="0" />
    <text
       style="font-size:19.17316818px"
       y="358.67148"
       x="536.09473"
       id="text3127"
       transform="scale(0.91405264,1.0940289)">
      <tspan
         id="tspan3129"
         sodipodi:role="line"
         y="358.67148"
         x="536.09473 540.93134 543.3374 546.95862 548.80707 552.42841"
         style="font-size:7.27749586px;font-variant:normal;font-weight:normal;writing-mode:lr-tb;fill:#000000;fill-opacity:1;fill-rule:nonzero;stroke:none;font-family:Helvetica LT CondensedLight;-inkscape-font-specification:Helvetica">K(x,z)</tspan>
    </text>
    <text
       style="font-size:19.17295837px"
       y="445.38736"
       x="283.50491"
       id="text3131"
       transform="scale(0.91404262,1.0940409)">
      <tspan
         id="tspan3133"
         sodipodi:role="line"
         y="445.38736"
         x="283.50491 289.87231 295.33633 300.1832 302.89432 308.35834 311.68567 314.4375 320.47595 323.84402 329.26633"
         style="font-size:9.70343399px;font-variant:normal;font-weight:normal;writing-mode:lr-tb;fill:#000000;fill-opacity:1;fill-rule:nonzero;stroke:none;font-family:Helvetica LT CondensedLight;-inkscape-font-specification:Helvetica">Vector Tree</tspan>
      <tspan
         id="tspan3135"
         sodipodi:role="line"
         y="445.05841"
         x="461.17386 467.54123 472.42984 477.89386 480.02954 485.49359 488.7937 491.54559 497.54333 500.84344 506.30743"
         style="font-size:9.70343399px;font-variant:normal;font-weight:normal;writing-mode:lr-tb;fill:#000000;fill-opacity:1;fill-rule:nonzero;stroke:none;font-family:Helvetica LT CondensedLight;-inkscape-font-specification:Helvetica">Scalar Tree</tspan>
    </text>
    <g
       transform="matrix(1.5977296,0,0,1.912403,-159.06779,1421.4616)"
       id="g3137">
      <path
         id="path3139"
         style="fill:none;stroke:#000000;stroke-width:0.163;stroke-linecap:round;stroke-linejoin:round;stroke-miterlimit:10;stroke-opacity:1;stroke-dasharray:none"
         d="m 237.543,-501.415 0,6.439 81.947,0 0,-6.816 m 11.187,0.118 0,6.439 92.452,0 0,-6.815"
         inkscape:connector-curvature="0" />
    </g>
    <text
       style="font-size:19.17316818px"
       y="358.67148"
       x="381.43335"
       id="text3141"
       transform="scale(0.91405264,1.0940289)">
      <tspan
         id="tspan3143"
         sodipodi:role="line"
         y="358.67148"
         x="381.43335 383.56934 387.18405 389.61615 393.26364 395.07141 398.7276"
         style="font-size:7.27749586px;font-variant:normal;font-weight:normal;writing-mode:lr-tb;fill:#000000;fill-opacity:1;fill-rule:nonzero;stroke:none;font-family:Helvetica LT CondensedLight;-inkscape-font-specification:Helvetica">fv(x,z)</tspan>
    </text>
    <g
       transform="matrix(1.5977296,0,0,1.912403,-159.06779,1421.4616)"
       id="g3145">
      <path
         id="path3147"
         style="fill:#000000;fill-opacity:1;fill-rule:nonzero;stroke:#000000;stroke-width:0.17299999;stroke-linecap:butt;stroke-linejoin:bevel;stroke-miterlimit:10;stroke-opacity:1;stroke-dasharray:none"
         d="m 316.435,-542.002 1.058,-1.081 c 0.094,-0.094 0.258,-0.094 0.352,0 0.094,0.094 0.094,0.259 0,0.353 l -1.034,1.081 c -0.094,0.094 -0.259,0.118 -0.353,0.023 -0.094,-0.094 -0.094,-0.258 -0.023,-0.376 z m 2.092,-2.138 1.034,-1.081 c 0.094,-0.118 0.258,-0.118 0.352,-0.024 0.094,0.094 0.118,0.259 0,0.353 l -1.034,1.081 c -0.094,0.117 -0.258,0.117 -0.352,0 -0.094,-0.071 -0.094,-0.235 0,-0.329 z m 2.068,-2.186 1.034,-1.057 c 0.094,-0.094 0.258,-0.118 0.352,-0.024 0.118,0.094 0.118,0.259 0,0.353 l -1.01,1.081 c -0.118,0.117 -0.259,0.117 -0.376,0.023 -0.094,-0.117 -0.094,-0.258 0,-0.376 z m 2.091,-2.138 1.034,-1.105 c 0.094,-0.094 0.235,-0.094 0.353,0 0.094,0.118 0.094,0.259 0,0.353 l -1.034,1.081 c -0.094,0.094 -0.259,0.094 -0.353,0.023 -0.117,-0.094 -0.117,-0.258 0,-0.352 z m 2.068,-2.162 1.034,-1.081 c 0.094,-0.118 0.259,-0.118 0.353,-0.024 0.094,0.094 0.094,0.259 0.023,0.353 l -1.057,1.104 c -0.094,0.094 -0.259,0.094 -0.353,0 -0.094,-0.117 -0.094,-0.258 0,-0.352 z m 2.068,-2.186 1.058,-1.058 c 0.094,-0.117 0.235,-0.117 0.329,-0.023 0.117,0.117 0.117,0.258 0.023,0.353 l -1.057,1.081 c -0.071,0.094 -0.235,0.117 -0.329,0.023 -0.094,-0.094 -0.118,-0.258 -0.024,-0.376 z m 2.092,-2.139 0.728,-0.775 c 0.094,-0.094 0.259,-0.118 0.353,-0.024 0.117,0.118 0.117,0.259 0,0.376 l -0.729,0.752 c -0.094,0.118 -0.258,0.118 -0.352,0 -0.094,-0.07 -0.094,-0.235 0,-0.329 z"
         inkscape:connector-curvature="0" />
    </g>
    <path
       id="path3149"
       style="fill:#000000;fill-opacity:1;fill-rule:evenodd;stroke:none"
       d="m 366.14679,357.79127 4.16898,-1.7987 -1.31449,5.07969 -2.85449,-3.28099"
       inkscape:connector-curvature="0" />
    <g
       transform="matrix(1.5977296,0,0,1.912403,-159.06779,1421.4616)"
       id="g3151">
      <path
         id="path3153"
         style="fill:none;stroke:#000000;stroke-width:0.163;stroke-linecap:round;stroke-linejoin:round;stroke-miterlimit:10;stroke-opacity:1;stroke-dasharray:none"
         d="m 255.568,-473.214 147.515,0 0,-11.139 -147.515,0 0,11.139 z"
         inkscape:connector-curvature="0" />
    </g>
    <text
       style="font-size:19.17295837px"
       y="464.7771"
       x="285.59995"
       id="text3155"
       transform="scale(0.91404262,1.0940409)">
      <tspan
         id="tspan3157"
         sodipodi:role="line"
         y="464.7771"
         x="285.59995 292.2963 295.33633 300.18423 302.89532 307.74323 311.0705 313.82239 319.56192 321.9859 327.45383 332.30161 337.76947 341.07352 344.11356 349.86481 352.90497 357.7518 363.54376 368.39063 371.6947 374.73471 379.58258 382.2937 385.04562 388.34958 393.19653 398.93607 403.78293 406.823 410.15033 414.99814 420.79016 424.09412 427.70871 433.17657 438.35239 441.06354 446.52753 451.99539 455.29944 458.06976 461.06909 466.53699 472.00485 474.42877 479.89664 485.3645 489.30804 494.77591 499.91098 502.68134 508.1492 513.61713"
         style="font-size:9.70343399px;font-variant:normal;font-weight:normal;writing-mode:lr-tb;fill:#000000;fill-opacity:1;fill-rule:nonzero;stroke:none;font-family:Helvetica LT CondensedLight;-inkscape-font-specification:Helvetica">K(x,z) = exp((&lt;(x+x)-z, (z+z)-x&gt;)*58.35)/(22.15*27.01)</tspan>
    </text>
    <g
       transform="matrix(1.5977296,0,0,1.912403,-159.06779,1421.4616)"
       id="g3159">
      <path
         id="path3161"
         style="fill:none;stroke:#000000;stroke-width:0.28200001;stroke-linecap:round;stroke-linejoin:round;stroke-miterlimit:10;stroke-opacity:1;stroke-dasharray:none"
         d="m 240.551,-504.847 12.502,0 0,7.3558 -12.502,0 0,-7.3558 z"
         inkscape:connector-curvature="0" />
    </g>
    <text
       style="font-size:19.17316818px"
       y="425.38593"
       x="248.91351"
       id="text3163"
       transform="scale(0.91405264,1.0940289)">
      <tspan
         id="tspan3165"
         sodipodi:role="line"
         y="425.38593"
         x="248.91351 252.57851 254.67369 261.97733 264.07254"
         style="font-size:7.27749586px;font-variant:normal;font-weight:normal;writing-mode:lr-tb;fill:#000000;fill-opacity:1;fill-rule:nonzero;stroke:none;font-family:Helvetica LT CondensedLight;-inkscape-font-specification:Helvetica">z[….]</tspan>
    </text>
    <g
       transform="matrix(1.5977296,0,0,1.912403,-159.06779,1421.4616)"
       id="g3167">
      <path
         id="path3169"
         style="fill:none;stroke:#000000;stroke-width:0.28200001;stroke-linecap:round;stroke-linejoin:round;stroke-miterlimit:10;stroke-opacity:1;stroke-dasharray:none"
         d="m 240.551,-524.517 12.502,0 0,7.3558 -12.502,0 0,-7.3558 z"
         inkscape:connector-curvature="0" />
    </g>
    <text
       style="font-size:19.17316818px"
       y="391.08383"
       x="248.91351"
       id="text3171"
       transform="scale(0.91405264,1.0940289)">
      <tspan
         id="tspan3173"
         sodipodi:role="line"
         y="391.08383"
         x="248.91351 252.57851 254.67369 261.97733 264.07254"
         style="font-size:7.27749586px;font-variant:normal;font-weight:normal;writing-mode:lr-tb;fill:#000000;fill-opacity:1;fill-rule:nonzero;stroke:none;font-family:Helvetica LT CondensedLight;-inkscape-font-specification:Helvetica">z[….]</tspan>
    </text>
    <g
       transform="matrix(1.5977296,0,0,1.912403,-159.06779,1421.4616)"
       id="g3175">
      <path
         id="path3177"
         style="fill:none;stroke:#000000;stroke-width:0.28200001;stroke-linecap:round;stroke-linejoin:round;stroke-miterlimit:10;stroke-opacity:1;stroke-dasharray:none"
         d="m 259.868,-534.199 12.502,0 0,7.3793 -12.502,0 0,-7.3793 z"
         inkscape:connector-curvature="0" />
    </g>
    <text
       style="font-size:19.17316818px"
       y="374.11768"
       x="282.59811"
       id="text3179"
       transform="scale(0.91405264,1.0940289)">
      <tspan
         id="tspan3181"
         sodipodi:role="line"
         y="374.11768"
         x="282.59811 286.22153 288.35745 295.61966 297.75568"
         style="font-size:7.27749586px;font-variant:normal;font-weight:normal;writing-mode:lr-tb;fill:#000000;fill-opacity:1;fill-rule:nonzero;stroke:none;font-family:Helvetica LT CondensedLight;-inkscape-font-specification:Helvetica">x[….]</tspan>
    </text>
    <g
       transform="matrix(1.5977296,0,0,1.912403,-159.06779,1421.4616)"
       id="g3183">
      <path
         id="path3185"
         style="fill:none;stroke:#000000;stroke-width:0.28200001;stroke-linecap:round;stroke-linejoin:round;stroke-miterlimit:10;stroke-opacity:1;stroke-dasharray:none"
         d="m 275.872,-519.746 c 0,2.044 3.314,3.689 7.38,3.689 4.089,0 7.403,-1.645 7.403,-3.689 0,-2.045 -3.314,-3.69 -7.403,-3.69 -4.066,0 -7.38,1.645 -7.38,3.69"
         inkscape:connector-curvature="0" />
    </g>
    <text
       style="font-size:19.17303848px"
       y="395.9697"
       x="318.05124"
       id="text3187"
       transform="scale(0.91404637,1.0940364)">
      <tspan
         id="tspan3189"
         y="395.9697"
         x="318.05124"
         style="font-size:19.40678978px;font-variant:normal;font-weight:normal;writing-mode:lr-tb;fill:#000000;fill-opacity:1;fill-rule:nonzero;stroke:none;font-family:Helvetica LT CondensedLight;-inkscape-font-specification:Helvetica">-</tspan>
    </text>
    <g
       transform="matrix(1.5977296,0,0,1.912403,-159.06779,1421.4616)"
       id="g3191">
      <path
         id="path3193"
         style="fill:none;stroke:#000000;stroke-width:0.28200001;stroke-linecap:round;stroke-linejoin:round;stroke-miterlimit:10;stroke-opacity:1;stroke-dasharray:none"
         d="m 259.633,-507.338 -6.58,6.581 m 6.933,-12.738 -6.933,-6.933 m 25.24,3.666 -6.58,6.581 m 7.661,-12.714 -6.933,-6.933 m 33.959,-5.664 -15.745,15.746 m -33.771,9.4 c 0,-2.044 3.313,-3.689 7.379,-3.689 4.089,0 7.403,1.645 7.403,3.689 0,2.045 -3.314,3.69 -7.403,3.69 -4.066,0 -7.379,-1.645 -7.379,-3.69"
         inkscape:connector-curvature="0" />
    </g>
    <text
       style="font-size:19.17303848px"
       y="413.55203"
       x="282.88766"
       id="text3195"
       transform="scale(0.91404637,1.0940364)">
      <tspan
         id="tspan3197"
         y="413.55203"
         x="282.88766"
         style="font-size:19.40678978px;font-variant:normal;font-weight:normal;writing-mode:lr-tb;fill:#000000;fill-opacity:1;fill-rule:nonzero;stroke:none;font-family:Helvetica LT CondensedLight;-inkscape-font-specification:Helvetica">+</tspan>
    </text>
    <g
       transform="matrix(1.5977296,0,0,1.912403,-159.06779,1421.4616)"
       id="g3199">
      <path
         id="path3201"
         style="fill:#000000;fill-opacity:1;fill-rule:nonzero;stroke:#000000;stroke-width:0.17299999;stroke-linecap:butt;stroke-linejoin:bevel;stroke-miterlimit:10;stroke-opacity:1;stroke-dasharray:none"
         d="m 237.543,-539.205 1.222,0 c 0.023,0 0.07,0.047 0.07,0.094 0,0.047 -0.047,0.094 -0.07,0.094 l -1.222,0 c -0.048,0 -0.094,-0.047 -0.094,-0.094 0,-0.047 0.046,-0.094 0.094,-0.094 z m 2.091,0 1.199,0 c 0.047,0 0.094,0.047 0.094,0.094 0,0.047 -0.047,0.094 -0.094,0.094 l -1.199,0 c -0.047,0 -0.094,-0.047 -0.094,-0.094 0,-0.047 0.047,-0.094 0.094,-0.094 z m 2.068,0 1.222,0 c 0.047,0 0.071,0.047 0.071,0.094 0,0.047 -0.024,0.094 -0.071,0.094 l -1.222,0 c -0.047,0 -0.094,-0.047 -0.094,-0.094 0,-0.047 0.047,-0.094 0.094,-0.094 z m 2.092,0 1.198,0 c 0.047,0 0.094,0.047 0.094,0.094 0,0.047 -0.047,0.094 -0.094,0.094 l -1.198,0 c -0.047,0 -0.094,-0.047 -0.094,-0.094 0,-0.047 0.047,-0.094 0.094,-0.094 z m 2.068,0 1.222,0 c 0.047,0 0.094,0.047 0.094,0.094 0,0.047 -0.047,0.094 -0.094,0.094 l -1.222,0 c -0.047,0 -0.071,-0.047 -0.071,-0.094 0,-0.047 0.024,-0.094 0.071,-0.094 z m 2.091,0 1.222,0 c 0.024,0 0.071,0.047 0.071,0.094 0,0.047 -0.047,0.094 -0.071,0.094 l -1.222,0 c -0.047,0 -0.094,-0.047 -0.094,-0.094 0,-0.047 0.047,-0.094 0.094,-0.094 z m 2.068,0 1.223,0 c 0.047,0 0.094,0.047 0.094,0.094 0,0.047 -0.047,0.094 -0.094,0.094 l -1.223,0 c -0.023,0 -0.07,-0.047 -0.07,-0.094 0,-0.047 0.047,-0.094 0.07,-0.094 z m 2.092,0 1.222,0 c 0.047,0 0.071,0.047 0.071,0.094 0,0.047 -0.024,0.094 -0.071,0.094 l -1.222,0 c -0.047,0 -0.094,-0.047 -0.094,-0.094 0,-0.047 0.047,-0.094 0.094,-0.094 z m 2.092,0 1.198,0 c 0.047,0 0.094,0.047 0.094,0.094 0,0.047 -0.047,0.094 -0.094,0.094 l -1.198,0 c -0.047,0 -0.094,-0.047 -0.094,-0.094 0,-0.047 0.047,-0.094 0.094,-0.094 z m 2.068,0 1.222,0 c 0.047,0 0.094,0.047 0.094,0.094 0,0.047 -0.047,0.094 -0.094,0.094 l -1.222,0 c -0.047,0 -0.094,-0.047 -0.094,-0.094 0,-0.047 0.047,-0.094 0.094,-0.094 z m 2.091,0 1.199,0 c 0.047,0 0.094,0.047 0.094,0.094 0,0.047 -0.047,0.094 -0.094,0.094 l -1.199,0 c -0.047,0 -0.094,-0.047 -0.094,-0.094 0,-0.047 0.047,-0.094 0.094,-0.094 z m 2.068,0 1.222,0 c 0.047,0 0.094,0.047 0.094,0.094 0,0.047 -0.047,0.094 -0.094,0.094 l -1.222,0 c -0.023,0 -0.07,-0.047 -0.07,-0.094 0,-0.047 0.047,-0.094 0.07,-0.094 z m 2.092,0 1.222,0 c 0.024,0 0.07,0.047 0.07,0.094 0,0.047 -0.046,0.094 -0.07,0.094 l -1.222,0 c -0.047,0 -0.094,-0.047 -0.094,-0.094 0,-0.047 0.047,-0.094 0.094,-0.094 z m 2.092,0 1.198,0 c 0.047,0 0.094,0.047 0.094,0.094 0,0.047 -0.047,0.094 -0.094,0.094 l -1.198,0 c -0.047,0 -0.094,-0.047 -0.094,-0.094 0,-0.047 0.047,-0.094 0.094,-0.094 z m 2.068,0 1.222,0 c 0.047,0 0.07,0.047 0.07,0.094 0,0.047 -0.023,0.094 -0.07,0.094 l -1.222,0 c -0.047,0 -0.094,-0.047 -0.094,-0.094 0,-0.047 0.047,-0.094 0.094,-0.094 z m 2.091,0 1.199,0 c 0.047,0 0.094,0.047 0.094,0.094 0,0.047 -0.047,0.094 -0.094,0.094 l -1.199,0 c -0.047,0 -0.094,-0.047 -0.094,-0.094 0,-0.047 0.047,-0.094 0.094,-0.094 z m 2.068,0 1.222,0 c 0.047,0 0.094,0.047 0.094,0.094 0,0.047 -0.047,0.094 -0.094,0.094 l -1.222,0 c -0.047,0 -0.07,-0.047 -0.07,-0.094 0,-0.047 0.023,-0.094 0.07,-0.094 z m 2.092,0 1.222,0 c 0.023,0 0.07,0.047 0.07,0.094 0,0.047 -0.047,0.094 -0.07,0.094 l -1.222,0 c -0.047,0 -0.094,-0.047 -0.094,-0.094 0,-0.047 0.047,-0.094 0.094,-0.094 z m 2.068,0 1.222,0 c 0.047,0 0.094,0.047 0.094,0.094 0,0.047 -0.047,0.094 -0.094,0.094 l -1.222,0 c -0.024,0 -0.071,-0.047 -0.071,-0.094 0,-0.047 0.047,-0.094 0.071,-0.094 z m 2.091,0 1.223,0 c 0.047,0 0.07,0.047 0.07,0.094 0,0.047 -0.023,0.094 -0.07,0.094 l -1.223,0 c -0.047,0 -0.094,-0.047 -0.094,-0.094 0,-0.047 0.047,-0.094 0.094,-0.094 z m 2.092,0 1.199,0 c 0.047,0 0.094,0.047 0.094,0.094 0,0.047 -0.047,0.094 -0.094,0.094 l -1.199,0 c -0.047,0 -0.094,-0.047 -0.094,-0.094 0,-0.047 0.047,-0.094 0.094,-0.094 z m 2.068,0 1.222,0 c 0.047,0 0.094,0.047 0.094,0.094 0,0.047 -0.047,0.094 -0.094,0.094 l -1.222,0 c -0.047,0 -0.094,-0.047 -0.094,-0.094 0,-0.047 0.047,-0.094 0.094,-0.094 z m 2.092,0 1.198,0 c 0.047,0 0.094,0.047 0.094,0.094 0,0.047 -0.047,0.094 -0.094,0.094 l -1.198,0 c -0.047,0 -0.094,-0.047 -0.094,-0.094 0,-0.047 0.047,-0.094 0.094,-0.094 z m 2.068,0 1.222,0 c 0.047,0 0.094,0.047 0.094,0.094 0,0.047 -0.047,0.094 -0.094,0.094 l -1.222,0 c -0.047,0 -0.071,-0.047 -0.071,-0.094 0,-0.047 0.024,-0.094 0.071,-0.094 z m 2.091,0 1.222,0 c 0.024,0 0.071,0.047 0.071,0.094 0,0.047 -0.047,0.094 -0.071,0.094 l -1.222,0 c -0.047,0 -0.094,-0.047 -0.094,-0.094 0,-0.047 0.047,-0.094 0.094,-0.094 z m 2.068,0 1.223,0 c 0.047,0 0.094,0.047 0.094,0.094 0,0.047 -0.047,0.094 -0.094,0.094 l -1.223,0 c -0.023,0 -0.07,-0.047 -0.07,-0.094 0,-0.047 0.047,-0.094 0.07,-0.094 z m 2.092,0 1.222,0 c 0.047,0 0.071,0.047 0.071,0.094 0,0.047 -0.024,0.094 -0.071,0.094 l -1.222,0 c -0.047,0 -0.094,-0.047 -0.094,-0.094 0,-0.047 0.047,-0.094 0.094,-0.094 z m 2.092,0 1.198,0 c 0.047,0 0.094,0.047 0.094,0.094 0,0.047 -0.047,0.094 -0.094,0.094 l -1.198,0 c -0.047,0 -0.094,-0.047 -0.094,-0.094 0,-0.047 0.047,-0.094 0.094,-0.094 z m 2.068,0 1.222,0 c 0.047,0 0.094,0.047 0.094,0.094 0,0.047 -0.047,0.094 -0.094,0.094 l -1.222,0 c -0.047,0 -0.071,-0.047 -0.071,-0.094 0,-0.047 0.024,-0.094 0.071,-0.094 z m 2.091,0 1.199,0 c 0.047,0 0.094,0.047 0.094,0.094 0,0.047 -0.047,0.094 -0.094,0.094 l -1.199,0 c -0.047,0 -0.094,-0.047 -0.094,-0.094 0,-0.047 0.047,-0.094 0.094,-0.094 z"
         inkscape:connector-curvature="0" />
    </g>
    <g
       transform="matrix(1.5977296,0,0,1.912403,-159.06779,1421.4616)"
       id="g3203">
      <path
         id="path3205"
         style="fill:none;stroke:#000000;stroke-width:0.163;stroke-linecap:round;stroke-linejoin:round;stroke-miterlimit:10;stroke-opacity:1;stroke-dasharray:none"
         d="m 237.354,-512.696 c -2.326,-4.865 -3.783,-15.299 -3.783,-26.744"
         inkscape:connector-curvature="0" />
    </g>
    <path
       id="path3207"
       style="fill:#000000;fill-opacity:1;fill-rule:evenodd;stroke:none"
       d="m 222.03816,437.16096 2.55383,9.12282 -7.62303,-3.05551 5.0692,-6.06731"
       inkscape:connector-curvature="0" />
    <g
       transform="matrix(1.5977296,0,0,1.912403,-159.06779,1421.4616)"
       id="g3209">
      <path
         id="path3211"
         style="fill:none;stroke:#000000;stroke-width:0.163;stroke-linecap:round;stroke-linejoin:round;stroke-miterlimit:10;stroke-opacity:1;stroke-dasharray:none"
         d="m 237.354,-566.137 c -2.326,4.841 -3.783,15.252 -3.783,26.697"
         inkscape:connector-curvature="0" />
    </g>
    <path
       id="path3213"
       style="fill:#000000;fill-opacity:1;fill-rule:evenodd;stroke:none"
       d="m 222.03816,342.55571 2.55383,-9.12457 -7.62303,3.05726 5.0692,6.06731"
       inkscape:connector-curvature="0" />
    <text
       style="font-size:19.17261314px"
       y="232.24236"
       x="-423.52512"
       id="text3215"
       transform="matrix(0,-1.0940605,0.91402623,0,0,0)">
      <tspan
         id="tspan3217"
         sodipodi:role="line"
         y="232.24236"
         x="-423.52512 -417.15759 -412.31052 -409.27054 -406.84698 -401.99643 -396.86179 -393.82181 -388.9747 -383.51123 -381.08768 -376.23712 -371.06113 -367.73361 -362.88654 -360.48056 -355.01706 -349.55356 -344.41891 -341.99539 -336.53186 -333.77942 -331.06839 -326.21774 -321.36716 -313.4801 -308.30417 -305.88058 -302.84064 -299.51306 -294.66251"
         style="font-size:8.79368019px;font-variant:normal;font-weight:bold;writing-mode:lr-tb;fill:#000000;fill-opacity:1;fill-rule:nonzero;stroke:none;font-family:Helvetica LT CondensedLight;-inkscape-font-specification:Helvetica-Bold">Reflected versions of same tree</tspan>
    </text>
  </g>
</svg>
