<?xml version="1.0" encoding="UTF-8" standalone="no"?>
<!DOCTYPE svg PUBLIC "-//W3C//DTD SVG 1.1//EN"
 "http://www.w3.org/Graphics/SVG/1.1/DTD/svg11.dtd">
<!-- Generated by graphviz version 2.26.3 (20100126.1600)
 -->
<!-- Title: g Pages: 1 -->
<svg width="170pt" height="404pt"
 viewBox="0.00 0.00 170.00 404.00" xmlns="http://www.w3.org/2000/svg" xmlns:xlink="http://www.w3.org/1999/xlink">
<g id="graph1" class="graph" transform="scale(1 1) rotate(0) translate(4 400)">
<title>g</title>
<polygon fill="white" stroke="white" points="-4,5 -4,-400 167,-400 167,5 -4,5"/>
<!-- n -->
<g id="node1" class="node"><title>n</title>
<polygon fill="none" stroke="black" points="90,-396 36,-396 36,-360 90,-360 90,-396"/>
<text text-anchor="middle" x="63" y="-374.4" font-family="Times Roman,serif" font-size="14.00">exp</text>
</g>
<!-- n0 -->
<g id="node2" class="node"><title>n0</title>
<polygon fill="none" stroke="black" points="90,-324 36,-324 36,-288 90,-288 90,-324"/>
<text text-anchor="middle" x="63" y="-302.4" font-family="Times Roman,serif" font-size="14.00">*</text>
</g>
<!-- n&#45;&gt;n0 -->
<g id="edge14" class="edge"><title>n&#45;&gt;n0</title>
<path fill="none" stroke="black" d="M63,-359.831C63,-352.131 63,-342.974 63,-334.417"/>
<polygon fill="black" stroke="black" points="66.5001,-334.413 63,-324.413 59.5001,-334.413 66.5001,-334.413"/>
</g>
<!-- n00 -->
<g id="node3" class="node"><title>n00</title>
<polygon fill="none" stroke="black" points="54,-252 1.77636e-14,-252 1.06581e-14,-216 54,-216 54,-252"/>
<text text-anchor="middle" x="27" y="-230.4" font-family="Times Roman,serif" font-size="14.00">&#45; γ</text>
</g>
<!-- n0&#45;&gt;n00 -->
<g id="edge2" class="edge"><title>n0&#45;&gt;n00</title>
<path fill="none" stroke="black" d="M53.9157,-287.831C49.9385,-279.877 45.1845,-270.369 40.7861,-261.572"/>
<polygon fill="black" stroke="black" points="43.8093,-259.792 36.2066,-252.413 37.5483,-262.923 43.8093,-259.792"/>
</g>
<!-- n01 -->
<g id="node5" class="node"><title>n01</title>
<polygon fill="none" stroke="black" points="126,-252 72,-252 72,-216 126,-216 126,-252"/>
<text text-anchor="middle" x="99" y="-230.4" font-family="Times Roman,serif" font-size="14.00">()^2</text>
</g>
<!-- n0&#45;&gt;n01 -->
<g id="edge12" class="edge"><title>n0&#45;&gt;n01</title>
<path fill="none" stroke="black" d="M72.0843,-287.831C76.0615,-279.877 80.8155,-270.369 85.2139,-261.572"/>
<polygon fill="black" stroke="black" points="88.4517,-262.923 89.7934,-252.413 82.1907,-259.792 88.4517,-262.923"/>
</g>
<!-- n010 -->
<g id="node6" class="node"><title>n010</title>
<polygon fill="none" stroke="black" points="126,-180 72,-180 72,-144 126,-144 126,-180"/>
<text text-anchor="middle" x="99" y="-158.4" font-family="Times Roman,serif" font-size="14.00">|| ||</text>
</g>
<!-- n01&#45;&gt;n010 -->
<g id="edge4" class="edge"><title>n01&#45;&gt;n010</title>
<path fill="none" stroke="black" d="M99,-215.831C99,-208.131 99,-198.974 99,-190.417"/>
<polygon fill="black" stroke="black" points="102.5,-190.413 99,-180.413 95.5001,-190.413 102.5,-190.413"/>
</g>
<!-- n0100 -->
<g id="node7" class="node"><title>n0100</title>
<polygon fill="none" stroke="black" points="126,-108 72,-108 72,-72 126,-72 126,-108"/>
<text text-anchor="middle" x="99" y="-86.4" font-family="Times Roman,serif" font-size="14.00">&#45;</text>
</g>
<!-- n010&#45;&gt;n0100 -->
<g id="edge6" class="edge"><title>n010&#45;&gt;n0100</title>
<path fill="none" stroke="black" d="M99,-143.831C99,-136.131 99,-126.974 99,-118.417"/>
<polygon fill="black" stroke="black" points="102.5,-118.413 99,-108.413 95.5001,-118.413 102.5,-118.413"/>
</g>
<!-- n01000 -->
<g id="node8" class="node"><title>n01000</title>
<polygon fill="none" stroke="black" points="90,-36 36,-36 36,-1.06581e-14 90,-0 90,-36"/>
<text text-anchor="middle" x="63" y="-14.4" font-family="Times Roman,serif" font-size="14.00">x</text>
</g>
<!-- n0100&#45;&gt;n01000 -->
<g id="edge8" class="edge"><title>n0100&#45;&gt;n01000</title>
<path fill="none" stroke="black" d="M89.9157,-71.8314C85.9385,-63.8771 81.1845,-54.369 76.7861,-45.5723"/>
<polygon fill="black" stroke="black" points="79.8093,-43.7923 72.2066,-36.4133 73.5483,-46.9228 79.8093,-43.7923"/>
</g>
<!-- n01001 -->
<g id="node9" class="node"><title>n01001</title>
<polygon fill="none" stroke="black" points="162,-36 108,-36 108,-1.06581e-14 162,-0 162,-36"/>
<text text-anchor="middle" x="135" y="-14.4" font-family="Times Roman,serif" font-size="14.00">y</text>
</g>
<!-- n0100&#45;&gt;n01001 -->
<g id="edge10" class="edge"><title>n0100&#45;&gt;n01001</title>
<path fill="none" stroke="black" d="M108.084,-71.8314C112.061,-63.8771 116.815,-54.369 121.214,-45.5723"/>
<polygon fill="black" stroke="black" points="124.452,-46.9228 125.793,-36.4133 118.191,-43.7923 124.452,-46.9228"/>
</g>
</g>
</svg>
