<?xml version="1.0" encoding="UTF-8" standalone="no"?>
<!DOCTYPE svg PUBLIC "-//W3C//DTD SVG 1.1//EN"
 "http://www.w3.org/Graphics/SVG/1.1/DTD/svg11.dtd">
<!-- Generated by graphviz version 2.26.3 (20100126.1600)
 -->
<!-- Title: g Pages: 1 -->
<svg width="504pt" height="332pt"
 viewBox="0.00 0.00 504.00 332.00" xmlns="http://www.w3.org/2000/svg" xmlns:xlink="http://www.w3.org/1999/xlink">
<g id="graph1" class="graph" transform="scale(1 1) rotate(0) translate(4 328)">
<title>g</title>
<polygon fill="white" stroke="white" points="-4,5 -4,-328 501,-328 501,5 -4,5"/>
<!-- n -->
<g id="node1" class="node"><title>n</title>
<polygon fill="none" stroke="black" points="354,-324 300,-324 300,-288 354,-288 354,-324"/>
<text text-anchor="middle" x="327" y="-302.4" font-family="Times Roman,serif" font-size="14.00">+</text>
</g>
<!-- n0 -->
<g id="node2" class="node"><title>n0</title>
<polygon fill="none" stroke="black" points="306,-252 252,-252 252,-216 306,-216 306,-252"/>
<text text-anchor="middle" x="279" y="-230.4" font-family="Times Roman,serif" font-size="14.00">*</text>
</g>
<!-- n&#45;&gt;n0 -->
<g id="edge20" class="edge"><title>n&#45;&gt;n0</title>
<path fill="none" stroke="black" d="M314.888,-287.831C309.472,-279.708 302.976,-269.964 297.008,-261.012"/>
<polygon fill="black" stroke="black" points="299.735,-258.792 291.276,-252.413 293.91,-262.675 299.735,-258.792"/>
</g>
<!-- n1 -->
<g id="node22" class="node"><title>n1</title>
<polygon fill="none" stroke="black" points="411,-252 341,-252 341,-216 411,-216 411,-252"/>
<text text-anchor="middle" x="376" y="-230.4" font-family="Times Roman,serif" font-size="14.00">Sigmoid</text>
</g>
<!-- n&#45;&gt;n1 -->
<g id="edge26" class="edge"><title>n&#45;&gt;n1</title>
<path fill="none" stroke="black" d="M339.365,-287.831C344.951,-279.623 351.663,-269.761 357.807,-260.732"/>
<polygon fill="black" stroke="black" points="360.736,-262.65 363.469,-252.413 354.949,-258.711 360.736,-262.65"/>
</g>
<!-- n00 -->
<g id="node3" class="node"><title>n00</title>
<polygon fill="none" stroke="black" points="175,-180 121,-180 121,-144 175,-144 175,-180"/>
<text text-anchor="middle" x="148" y="-158.4" font-family="Times Roman,serif" font-size="14.00">a *</text>
</g>
<!-- n0&#45;&gt;n00 -->
<g id="edge10" class="edge"><title>n0&#45;&gt;n00</title>
<path fill="none" stroke="black" d="M251.857,-219.082C232.184,-208.269 205.384,-193.539 183.936,-181.751"/>
<polygon fill="black" stroke="black" points="185.558,-178.649 175.109,-176.899 182.186,-184.783 185.558,-178.649"/>
</g>
<!-- n01 -->
<g id="node13" class="node"><title>n01</title>
<polygon fill="none" stroke="black" points="324,-180 234,-180 234,-144 324,-144 324,-180"/>
<text text-anchor="middle" x="279" y="-158.4" font-family="Times Roman,serif" font-size="14.00">Polynomial</text>
</g>
<!-- n0&#45;&gt;n01 -->
<g id="edge18" class="edge"><title>n0&#45;&gt;n01</title>
<path fill="none" stroke="black" d="M279,-215.831C279,-208.131 279,-198.974 279,-190.417"/>
<polygon fill="black" stroke="black" points="282.5,-190.413 279,-180.413 275.5,-190.413 282.5,-190.413"/>
</g>
<!-- n000 -->
<g id="node4" class="node"><title>n000</title>
<polygon fill="none" stroke="black" points="96,-108 42,-108 42,-72 96,-72 96,-108"/>
<text text-anchor="middle" x="69" y="-86.4" font-family="Times Roman,serif" font-size="14.00">*</text>
</g>
<!-- n00&#45;&gt;n000 -->
<g id="edge6" class="edge"><title>n00&#45;&gt;n000</title>
<path fill="none" stroke="black" d="M128.065,-143.831C118.522,-135.134 106.94,-124.578 96.5694,-115.127"/>
<polygon fill="black" stroke="black" points="98.6772,-112.312 88.9287,-108.163 93.962,-117.486 98.6772,-112.312"/>
</g>
<!-- n001 -->
<g id="node10" class="node"><title>n001</title>
<polygon fill="none" stroke="black" points="182,-108 114,-108 114,-72 182,-72 182,-108"/>
<text text-anchor="middle" x="148" y="-86.4" font-family="Times Roman,serif" font-size="14.00">a=0.86</text>
</g>
<!-- n00&#45;&gt;n001 -->
<g id="edge8" class="edge"><title>n00&#45;&gt;n001</title>
<path fill="none" stroke="black" d="M148,-143.831C148,-136.131 148,-126.974 148,-118.417"/>
<polygon fill="black" stroke="black" points="151.5,-118.413 148,-108.413 144.5,-118.413 151.5,-118.413"/>
</g>
<!-- n0000 -->
<g id="node5" class="node"><title>n0000</title>
<polygon fill="none" stroke="black" points="60,-36 2.13163e-14,-36 1.06581e-14,-1.06581e-14 60,-0 60,-36"/>
<text text-anchor="middle" x="30" y="-14.4" font-family="Times Roman,serif" font-size="14.00">Linear</text>
</g>
<!-- n000&#45;&gt;n0000 -->
<g id="edge2" class="edge"><title>n000&#45;&gt;n0000</title>
<path fill="none" stroke="black" d="M59.1587,-71.8314C54.8043,-63.7925 49.5902,-54.1666 44.7831,-45.2918"/>
<polygon fill="black" stroke="black" points="47.8143,-43.5392 39.9739,-36.4133 41.6592,-46.8732 47.8143,-43.5392"/>
</g>
<!-- n0001 -->
<g id="node7" class="node"><title>n0001</title>
<polygon fill="none" stroke="black" points="138,-36 78,-36 78,-1.06581e-14 138,-0 138,-36"/>
<text text-anchor="middle" x="108" y="-14.4" font-family="Times Roman,serif" font-size="14.00">Linear</text>
</g>
<!-- n000&#45;&gt;n0001 -->
<g id="edge4" class="edge"><title>n000&#45;&gt;n0001</title>
<path fill="none" stroke="black" d="M78.8413,-71.8314C83.1957,-63.7925 88.4098,-54.1666 93.2169,-45.2918"/>
<polygon fill="black" stroke="black" points="96.3408,-46.8732 98.0261,-36.4133 90.1857,-43.5392 96.3408,-46.8732"/>
</g>
<!-- n010 -->
<g id="node14" class="node"><title>n010</title>
<polygon fill="none" stroke="black" points="268,-108 200,-108 200,-72 268,-72 268,-108"/>
<text text-anchor="middle" x="234" y="-86.4" font-family="Times Roman,serif" font-size="14.00">γ=0.44</text>
</g>
<!-- n01&#45;&gt;n010 -->
<g id="edge12" class="edge"><title>n01&#45;&gt;n010</title>
<path fill="none" stroke="black" d="M267.645,-143.831C262.567,-135.708 256.477,-125.964 250.882,-117.012"/>
<polygon fill="black" stroke="black" points="253.776,-115.038 245.508,-108.413 247.84,-118.748 253.776,-115.038"/>
</g>
<!-- n011 -->
<g id="node16" class="node"><title>n011</title>
<polygon fill="none" stroke="black" points="354,-108 286,-108 286,-72 354,-72 354,-108"/>
<text text-anchor="middle" x="320" y="-86.4" font-family="Times Roman,serif" font-size="14.00">τ=0.08</text>
</g>
<!-- n01&#45;&gt;n011 -->
<g id="edge14" class="edge"><title>n01&#45;&gt;n011</title>
<path fill="none" stroke="black" d="M289.346,-143.831C293.924,-135.792 299.405,-126.167 304.459,-117.292"/>
<polygon fill="black" stroke="black" points="307.608,-118.835 309.515,-108.413 301.525,-115.371 307.608,-118.835"/>
</g>
<!-- n012 -->
<g id="node18" class="node"><title>n012</title>
<polygon fill="none" stroke="black" points="440,-108 372,-108 372,-72 440,-72 440,-108"/>
<text text-anchor="middle" x="406" y="-86.4" font-family="Times Roman,serif" font-size="14.00">d=2.94</text>
</g>
<!-- n01&#45;&gt;n012 -->
<g id="edge16" class="edge"><title>n01&#45;&gt;n012</title>
<path fill="none" stroke="black" d="M311.047,-143.831C327.442,-134.537 347.579,-123.121 365.083,-113.197"/>
<polygon fill="black" stroke="black" points="366.99,-116.139 373.963,-108.163 363.537,-110.05 366.99,-116.139"/>
</g>
<!-- n10 -->
<g id="node23" class="node"><title>n10</title>
<polygon fill="none" stroke="black" points="410,-180 342,-180 342,-144 410,-144 410,-180"/>
<text text-anchor="middle" x="376" y="-158.4" font-family="Times Roman,serif" font-size="14.00">γ=0.47</text>
</g>
<!-- n1&#45;&gt;n10 -->
<g id="edge22" class="edge"><title>n1&#45;&gt;n10</title>
<path fill="none" stroke="black" d="M376,-215.831C376,-208.131 376,-198.974 376,-190.417"/>
<polygon fill="black" stroke="black" points="379.5,-190.413 376,-180.413 372.5,-190.413 379.5,-190.413"/>
</g>
<!-- n11 -->
<g id="node25" class="node"><title>n11</title>
<polygon fill="none" stroke="black" points="496,-180 428,-180 428,-144 496,-144 496,-180"/>
<text text-anchor="middle" x="462" y="-158.4" font-family="Times Roman,serif" font-size="14.00">τ=0.10</text>
</g>
<!-- n1&#45;&gt;n11 -->
<g id="edge24" class="edge"><title>n1&#45;&gt;n11</title>
<path fill="none" stroke="black" d="M397.701,-215.831C408.192,-207.048 420.946,-196.371 432.319,-186.849"/>
<polygon fill="black" stroke="black" points="434.885,-189.266 440.306,-180.163 430.391,-183.899 434.885,-189.266"/>
</g>
</g>
</svg>
