<?xml version="1.0" encoding="UTF-8" standalone="no"?>
<!DOCTYPE svg PUBLIC "-//W3C//DTD SVG 1.1//EN"
 "http://www.w3.org/Graphics/SVG/1.1/DTD/svg11.dtd">
<!-- Generated by graphviz version 2.26.3 (20100126.1600)
 -->
<!-- Title: g Pages: 1 -->
<svg width="68pt" height="116pt"
 viewBox="0.00 0.00 68.00 116.00" xmlns="http://www.w3.org/2000/svg" xmlns:xlink="http://www.w3.org/1999/xlink">
<g id="graph1" class="graph" transform="scale(1 1) rotate(0) translate(4 112)">
<title>g</title>
<polygon fill="white" stroke="white" points="-4,5 -4,-112 65,-112 65,5 -4,5"/>
<!-- n -->
<g id="node1" class="node"><title>n</title>
<polygon fill="none" stroke="black" points="57,-108 3,-108 3,-72 57,-72 57,-108"/>
<text text-anchor="middle" x="30" y="-86.4" font-family="Times Roman,serif" font-size="14.00">Exp</text>
</g>
<!-- n0 -->
<g id="node2" class="node"><title>n0</title>
<polygon fill="none" stroke="black" points="60,-36 2.13163e-14,-36 1.06581e-14,-1.06581e-14 60,-0 60,-36"/>
<text text-anchor="middle" x="30" y="-14.4" font-family="Times Roman,serif" font-size="14.00">Linear</text>
</g>
<!-- n&#45;&gt;n0 -->
<g id="edge2" class="edge"><title>n&#45;&gt;n0</title>
<path fill="none" stroke="black" d="M30,-71.8314C30,-64.131 30,-54.9743 30,-46.4166"/>
<polygon fill="black" stroke="black" points="33.5001,-46.4132 30,-36.4133 26.5001,-46.4133 33.5001,-46.4132"/>
</g>
</g>
</svg>
